<svg id="side_to_side" data-name="side to side" xmlns="http://www.w3.org/2000/svg" viewBox="0 0 420 87"><defs><style>.cls-1{fill:none;stroke:#fff;stroke-miterlimit:10;stroke-width:3px;}</style></defs><title>miketmusic</title><polyline class="cls-1" points="106.77 46.5 106.77 9.5 117.97 9.5 117.97 28"/><polyline class="cls-1" points="129.14 46.5 129.14 9.5 117.94 9.5"/><line class="cls-1" x1="136.71" y1="9.5" x2="136.71" y2="46.5"/><line class="cls-1" x1="142.92" y1="9.5" x2="142.92" y2="46.5"/><polyline class="cls-1" points="156.07 9.5 142.92 28 156.07 46.5"/><polyline class="cls-1" points="176.51 9.5 161.91 9.5 161.91 28 161.91 46.5 176.51 46.5"/><line class="cls-1" x1="172.86" y1="28" x2="161.91" y2="28"/><polyline class="cls-1" points="186.76 9.5 198.08 9.5 209.4 9.5"/><line class="cls-1" x1="198.08" y1="46.5" x2="198.08" y2="9.5"/><polyline class="cls-1" points="220.11 46.5 220.11 9.5 231.31 9.5 231.31 28"/><polyline class="cls-1" points="242.48 46.5 242.48 9.5 231.28 9.5"/><polyline class="cls-1" points="250.05 9.5 250.05 46.5 266.61 46.5 266.61 9.5"/><polyline class="cls-1" points="287.3 9.5 273.18 9.5 273.18 28 287.3 28 287.3 46.5 273.18 46.5"/><line class="cls-1" x1="295.82" y1="9.5" x2="295.82" y2="46.5"/><polyline class="cls-1" points="319.25 9.5 304.64 9.5 304.64 28 304.64 46.5 319.25 46.5"/></svg>